<svg version="1.1" id="Layer_1" xmlns="http://www.w3.org/2000/svg" xmlns:xlink="http://www.w3.org/1999/xlink" x="0px" y="0px"
	 width="100%" viewBox="0 0 2000 1500" enable-background="new 0 0 2000 1500" xml:space="preserve">
<path fill="#0C1D36" opacity="1.000000" stroke="none" 
	d="
M1356.000000,1501.000000 
	C904.000122,1501.000000 452.500275,1501.000000 1.000303,1501.000000 
	C1.000202,1001.000305 1.000202,501.000580 1.000101,1.000638 
	C667.666199,1.000426 1334.332397,1.000426 2000.998901,1.000213 
	C2000.999268,500.999359 2000.999268,1000.998718 2000.999634,1500.999023 
	C1786.166626,1501.000000 1571.333374,1501.000000 1356.000000,1501.000000 
M833.081177,1196.809692 
	C832.752930,1196.870361 832.420410,1196.913696 832.096985,1196.993896 
	C768.627014,1212.743164 704.608948,1215.094971 640.266968,1203.720947 
	C557.067688,1189.013184 483.331451,1153.877686 419.390991,1098.660400 
	C287.030518,984.357361 230.971024,805.218933 274.337402,636.171814 
	C319.502136,460.114441 464.412994,327.058960 643.939270,296.732574 
	C701.622437,286.988495 759.315186,287.304871 816.225037,300.495361 
	C970.596802,336.275513 1079.775269,427.437592 1144.533203,571.950195 
	C1147.253418,578.020874 1147.548584,578.263184 1154.549194,576.441223 
	C1076.594360,379.987793 863.934082,244.581085 626.358826,292.188904 
	C405.803802,336.386078 240.152451,537.545288 253.103104,776.661926 
	C265.579620,1007.023804 446.292450,1196.793579 680.070862,1216.625000 
	C906.641479,1235.845093 1089.268555,1094.045166 1154.322021,924.243896 
	C1148.978271,922.567871 1146.364990,924.528503 1144.021606,929.789856 
	C1082.674805,1067.528687 979.288757,1156.515259 833.081177,1196.809692 
M762.756653,614.860168 
	C729.385315,597.552856 694.224304,592.811157 657.659424,601.154846 
	C573.067444,620.457825 521.569763,705.307617 543.209229,789.097168 
	C563.949951,869.406677 646.469849,919.006348 727.070068,899.609131 
	C808.623718,879.982544 859.348877,799.111633 840.966370,717.148376 
	C830.735352,671.530518 804.186768,637.813904 762.756653,614.860168 
M1101.517700,677.968811 
	C1126.309814,677.968811 1151.101807,677.968811 1176.055664,677.968811 
	C1176.055664,673.714600 1176.055664,669.830688 1176.055664,665.985291 
	C1142.819214,665.985291 1109.943970,665.985291 1077.084839,665.985291 
	C1077.084839,722.562988 1077.084839,778.791809 1077.084839,835.139404 
	C1110.457153,835.139404 1143.548462,835.139404 1176.676025,835.139404 
	C1176.676025,831.026733 1176.676025,827.143005 1176.676025,822.874756 
	C1147.897705,822.874756 1119.479004,822.874756 1090.980835,822.874756 
	C1090.980835,799.774536 1090.980835,777.068726 1090.980835,753.789673 
	C1115.999268,753.789673 1140.697266,753.789673 1165.408691,753.789673 
	C1165.408691,749.605835 1165.408691,746.001221 1165.408691,741.803406 
	C1140.443970,741.803406 1115.729614,741.803406 1090.906738,741.803406 
	C1090.906738,720.285034 1090.906738,699.366455 1090.906738,677.968811 
	C1094.275879,677.968811 1097.400879,677.968811 1101.517700,677.968811 
M1311.454102,665.667114 
	C1281.159546,665.667114 1250.864990,665.667114 1220.299805,665.667114 
	C1220.299805,722.332764 1220.299805,778.570007 1220.299805,834.919250 
	C1253.689209,834.919250 1286.875732,834.919250 1319.917603,834.919250 
	C1319.917603,830.768311 1319.917603,827.036194 1319.917603,822.882324 
	C1291.121338,822.882324 1262.709229,822.882324 1234.304321,822.882324 
	C1234.304321,799.712280 1234.304321,776.986694 1234.304321,753.763672 
	C1259.357544,753.763672 1284.086426,753.763672 1308.603271,753.763672 
	C1308.603271,749.514832 1308.603271,745.772888 1308.603271,741.684448 
	C1283.619751,741.684448 1259.012451,741.684448 1234.324097,741.684448 
	C1234.324097,720.277649 1234.324097,699.232361 1234.324097,677.791687 
	C1262.928711,677.791687 1291.188232,677.791687 1319.595459,677.791687 
	C1319.595459,673.648865 1319.595459,669.907898 1319.595459,665.666992 
	C1317.024414,665.666992 1314.730469,665.666992 1311.454102,665.667114 
M1415.839233,724.255920 
	C1396.753662,755.701416 1377.798584,787.227600 1358.457886,818.515442 
	C1355.115356,823.922852 1354.600342,829.138062 1355.355713,835.031555 
	C1391.504272,835.031555 1427.426514,835.031555 1463.373535,835.031555 
	C1463.373535,830.935852 1463.373535,827.175415 1463.373535,822.791260 
	C1432.747437,822.791260 1402.425781,822.791260 1371.588501,822.791260 
	C1372.735840,820.807434 1373.456177,819.507446 1374.226562,818.237854 
	C1402.032715,772.420410 1429.772827,726.562561 1457.753540,680.851807 
	C1460.846924,675.798340 1460.766113,671.033630 1459.834717,665.950806 
	C1425.714844,665.950806 1391.951172,665.950806 1358.155029,665.950806 
	C1358.155029,670.021362 1358.155029,673.774414 1358.155029,678.106445 
	C1386.623169,678.106445 1414.797852,678.106445 1443.812378,678.106445 
	C1434.273682,693.809998 1425.223877,708.708801 1415.839233,724.255920 
M957.505981,823.031128 
	C952.425232,823.031128 947.344421,823.031128 941.568970,823.031128 
	C942.760315,820.907959 943.508362,819.477356 944.343933,818.099731 
	C971.867310,772.720093 999.317200,727.295349 1027.040771,682.038330 
	C1030.255127,676.791077 1031.081299,671.776367 1029.939331,665.981750 
	C995.912109,665.981750 962.046021,665.981750 928.203674,665.981750 
	C928.203674,670.079712 928.203674,673.828064 928.203674,678.140320 
	C956.682556,678.140320 984.847168,678.140320 1013.660950,678.140320 
	C1012.355286,680.409607 1011.492859,681.981873 1010.563477,683.513489 
	C983.029419,728.888062 955.567322,774.306763 927.840820,819.563477 
	C924.675049,824.730896 924.865967,829.676636 925.351746,834.953674 
	C961.635620,834.953674 997.514954,834.953674 1033.305664,834.953674 
	C1033.305664,830.784668 1033.305664,827.030945 1033.305664,823.031128 
	C1008.130981,823.031128 983.317261,823.031128 957.505981,823.031128 
z"/>
<path fill="#F2C70C" opacity="1.000000" stroke="none" 
	d="
M833.476196,1196.694580 
	C979.288757,1156.515259 1082.674805,1067.528687 1144.021606,929.789856 
	C1146.364990,924.528503 1148.978271,922.567871 1154.322021,924.243896 
	C1089.268555,1094.045166 906.641479,1235.845093 680.070862,1216.625000 
	C446.292450,1196.793579 265.579620,1007.023804 253.103104,776.661926 
	C240.152451,537.545288 405.803802,336.386078 626.358826,292.188904 
	C863.934082,244.581085 1076.594360,379.987793 1154.549194,576.441223 
	C1147.548584,578.263184 1147.253418,578.020874 1144.533203,571.950195 
	C1079.775269,427.437592 970.596802,336.275513 816.225037,300.495361 
	C759.315186,287.304871 701.622437,286.988495 643.939270,296.732574 
	C464.412994,327.058960 319.502136,460.114441 274.337402,636.171814 
	C230.971024,805.218933 287.030518,984.357361 419.390991,1098.660400 
	C483.331451,1153.877686 557.067688,1189.013184 640.266968,1203.720947 
	C704.608948,1215.094971 768.627014,1212.743164 832.096985,1196.993896 
	C832.420410,1196.913696 832.752930,1196.870361 833.476196,1196.694580 
z"/>
<path fill="#F5F5F6" opacity="1.000000" stroke="none" 
	d="
M763.100464,614.995728 
	C804.186768,637.813904 830.735352,671.530518 840.966370,717.148376 
	C859.348877,799.111633 808.623718,879.982544 727.070068,899.609131 
	C646.469849,919.006348 563.949951,869.406677 543.209229,789.097168 
	C521.569763,705.307617 573.067444,620.457825 657.659424,601.154846 
	C694.224304,592.811157 729.385315,597.552856 763.100464,614.995728 
M632.548340,875.085327 
	C661.299377,888.553467 691.231140,891.707764 722.158936,884.930054 
	C795.334045,868.894043 842.847900,794.123840 826.265076,721.308228 
	C809.496643,647.677551 741.603577,602.406677 666.723450,614.926331 
	C591.805786,627.452271 540.145142,703.947754 556.548401,778.338806 
	C566.267395,822.416138 591.737183,854.378906 632.548340,875.085327 
z"/>
<path fill="#F6CA0B" opacity="1.000000" stroke="none" 
	d="
M1101.021729,677.968811 
	C1097.400879,677.968811 1094.275879,677.968811 1090.906738,677.968811 
	C1090.906738,699.366455 1090.906738,720.285034 1090.906738,741.803406 
	C1115.729614,741.803406 1140.443970,741.803406 1165.408691,741.803406 
	C1165.408691,746.001221 1165.408691,749.605835 1165.408691,753.789673 
	C1140.697266,753.789673 1115.999268,753.789673 1090.980835,753.789673 
	C1090.980835,777.068726 1090.980835,799.774536 1090.980835,822.874756 
	C1119.479004,822.874756 1147.897705,822.874756 1176.676025,822.874756 
	C1176.676025,827.143005 1176.676025,831.026733 1176.676025,835.139404 
	C1143.548462,835.139404 1110.457153,835.139404 1077.084839,835.139404 
	C1077.084839,778.791809 1077.084839,722.562988 1077.084839,665.985291 
	C1109.943970,665.985291 1142.819214,665.985291 1176.055664,665.985291 
	C1176.055664,669.830688 1176.055664,673.714600 1176.055664,677.968811 
	C1151.101807,677.968811 1126.309814,677.968811 1101.021729,677.968811 
z"/>
<path fill="#F8CB0B" opacity="1.000000" stroke="none" 
	d="
M1311.945312,665.667053 
	C1314.730469,665.666992 1317.024414,665.666992 1319.595459,665.666992 
	C1319.595459,669.907898 1319.595459,673.648865 1319.595459,677.791687 
	C1291.188232,677.791687 1262.928711,677.791687 1234.324097,677.791687 
	C1234.324097,699.232361 1234.324097,720.277649 1234.324097,741.684448 
	C1259.012451,741.684448 1283.619751,741.684448 1308.603271,741.684448 
	C1308.603271,745.772888 1308.603271,749.514832 1308.603271,753.763672 
	C1284.086426,753.763672 1259.357544,753.763672 1234.304321,753.763672 
	C1234.304321,776.986694 1234.304321,799.712280 1234.304321,822.882324 
	C1262.709229,822.882324 1291.121338,822.882324 1319.917603,822.882324 
	C1319.917603,827.036194 1319.917603,830.768311 1319.917603,834.919250 
	C1286.875732,834.919250 1253.689209,834.919250 1220.299805,834.919250 
	C1220.299805,778.570007 1220.299805,722.332764 1220.299805,665.667114 
	C1250.864990,665.667114 1281.159546,665.667114 1311.945312,665.667053 
z"/>
<path fill="#F6CA0B" opacity="1.000000" stroke="none" 
	d="
M1416.006592,723.931763 
	C1425.223877,708.708801 1434.273682,693.809998 1443.812378,678.106445 
	C1414.797852,678.106445 1386.623169,678.106445 1358.155029,678.106445 
	C1358.155029,673.774414 1358.155029,670.021362 1358.155029,665.950806 
	C1391.951172,665.950806 1425.714844,665.950806 1459.834717,665.950806 
	C1460.766113,671.033630 1460.846924,675.798340 1457.753540,680.851807 
	C1429.772827,726.562561 1402.032715,772.420410 1374.226562,818.237854 
	C1373.456177,819.507446 1372.735840,820.807434 1371.588501,822.791260 
	C1402.425781,822.791260 1432.747437,822.791260 1463.373535,822.791260 
	C1463.373535,827.175415 1463.373535,830.935852 1463.373535,835.031555 
	C1427.426514,835.031555 1391.504272,835.031555 1355.355713,835.031555 
	C1354.600342,829.138062 1355.115356,823.922852 1358.457886,818.515442 
	C1377.798584,787.227600 1396.753662,755.701416 1416.006592,723.931763 
z"/>
<path fill="#F6CA0B" opacity="1.000000" stroke="none" 
	d="
M958.004761,823.031128 
	C983.317261,823.031128 1008.130981,823.031128 1033.305664,823.031128 
	C1033.305664,827.030945 1033.305664,830.784668 1033.305664,834.953674 
	C997.514954,834.953674 961.635620,834.953674 925.351746,834.953674 
	C924.865967,829.676636 924.675049,824.730896 927.840820,819.563477 
	C955.567322,774.306763 983.029419,728.888062 1010.563477,683.513489 
	C1011.492859,681.981873 1012.355286,680.409607 1013.660950,678.140320 
	C984.847168,678.140320 956.682556,678.140320 928.203674,678.140320 
	C928.203674,673.828064 928.203674,670.079712 928.203674,665.981750 
	C962.046021,665.981750 995.912109,665.981750 1029.939331,665.981750 
	C1031.081299,671.776367 1030.255127,676.791077 1027.040771,682.038330 
	C999.317200,727.295349 971.867310,772.720093 944.343933,818.099731 
	C943.508362,819.477356 942.760315,820.907959 941.568970,823.031128 
	C947.344421,823.031128 952.425232,823.031128 958.004761,823.031128 
z"/>
<path fill="#0D1E37" opacity="1.000000" stroke="none" 
	d="
M632.194092,874.961426 
	C591.737183,854.378906 566.267395,822.416138 556.548401,778.338806 
	C540.145142,703.947754 591.805786,627.452271 666.723450,614.926331 
	C741.603577,602.406677 809.496643,647.677551 826.265076,721.308228 
	C842.847900,794.123840 795.334045,868.894043 722.158936,884.930054 
	C691.231140,891.707764 661.299377,888.553467 632.194092,874.961426 
M728.033325,710.864685 
	C723.431213,710.047241 721.535889,712.496826 721.272522,716.650024 
	C720.956299,721.637512 720.828552,726.636597 720.565369,731.627869 
	C720.435974,734.081360 720.779663,737.163574 717.203186,737.253906 
	C713.409668,737.349670 713.609253,734.195862 713.263184,731.524170 
	C712.240051,723.624756 711.841858,715.548157 709.856567,707.888855 
	C705.109619,689.575256 693.669312,676.058899 677.450439,666.645752 
	C675.320312,665.409546 672.181274,665.911743 669.509521,665.608704 
	C669.478455,668.067749 668.691101,670.838440 669.552734,672.929688 
	C672.596680,680.317322 670.304443,686.940308 666.534790,692.849792 
	C661.453857,700.814697 655.401062,708.159119 649.775269,715.777161 
	C643.657654,724.061157 636.799988,731.912292 631.612915,740.743774 
	C623.463318,754.619263 621.050659,769.982910 625.790405,785.527710 
	C634.355530,813.618835 653.802795,830.749878 682.504822,835.268982 
	C710.122498,839.617249 731.904419,827.638977 747.998352,805.526855 
	C771.995117,772.556458 755.102295,729.758545 728.033325,710.864685 
z"/>
<path fill="#F7F7F8" opacity="1.000000" stroke="none" 
	d="
M728.417175,710.966064 
	C755.102295,729.758545 771.995117,772.556458 747.998352,805.526855 
	C731.904419,827.638977 710.122498,839.617249 682.504822,835.268982 
	C653.802795,830.749878 634.355530,813.618835 625.790405,785.527710 
	C621.050659,769.982910 623.463318,754.619263 631.612915,740.743774 
	C636.799988,731.912292 643.657654,724.061157 649.775269,715.777161 
	C655.401062,708.159119 661.453857,700.814697 666.534790,692.849792 
	C670.304443,686.940308 672.596680,680.317322 669.552734,672.929688 
	C668.691101,670.838440 669.478455,668.067749 669.509521,665.608704 
	C672.181274,665.911743 675.320312,665.409546 677.450439,666.645752 
	C693.669312,676.058899 705.109619,689.575256 709.856567,707.888855 
	C711.841858,715.548157 712.240051,723.624756 713.263184,731.524170 
	C713.609253,734.195862 713.409668,737.349670 717.203186,737.253906 
	C720.779663,737.163574 720.435974,734.081360 720.565369,731.627869 
	C720.828552,726.636597 720.956299,721.637512 721.272522,716.650024 
	C721.535889,712.496826 723.431213,710.047241 728.417175,710.966064 
M710.710327,774.800232 
	C706.116760,769.314148 701.606628,763.755249 696.901062,758.366943 
	C693.652954,754.647583 689.786011,754.527344 686.684998,758.115051 
	C680.593201,765.162781 674.438232,772.181580 668.783325,779.574890 
	C661.873352,788.608948 661.817200,801.364929 668.051819,810.959351 
	C674.226379,820.461243 685.549927,825.376892 696.521240,823.245911 
	C707.223633,821.167236 714.465698,814.875610 718.144470,804.708008 
	C722.203125,793.490173 718.951660,783.841431 710.710327,774.800232 
z"/>
<path fill="#0E1F38" opacity="1.000000" stroke="none" 
	d="
M710.929810,775.081360 
	C718.951660,783.841431 722.203125,793.490173 718.144470,804.708008 
	C714.465698,814.875610 707.223633,821.167236 696.521240,823.245911 
	C685.549927,825.376892 674.226379,820.461243 668.051819,810.959351 
	C661.817200,801.364929 661.873352,788.608948 668.783325,779.574890 
	C674.438232,772.181580 680.593201,765.162781 686.684998,758.115051 
	C689.786011,754.527344 693.652954,754.647583 696.901062,758.366943 
	C701.606628,763.755249 706.116760,769.314148 710.929810,775.081360 
z"/>
</svg>